<mxfile host="app.diagrams.net" modified="2024-03-15T08:03:45.382Z" agent="Mozilla/5.0 (Macintosh; Intel Mac OS X 10_15_7) AppleWebKit/605.1.15 (KHTML, like Gecko) Version/16.4 Safari/605.1.15" etag="VMqe8SiapOiaSLkl4Z_2" version="24.0.6" type="github">
  <diagram id="6a731a19-8d31-9384-78a2-239565b7b9f0" name="Page-1">
    <mxGraphModel dx="970" dy="1005" grid="1" gridSize="10" guides="1" tooltips="1" connect="1" arrows="1" fold="1" page="1" pageScale="1" pageWidth="1169" pageHeight="827" background="none" math="0" shadow="0">
      <root>
        <mxCell id="0" />
        <mxCell id="1" parent="0" />
        <mxCell id="2" value="Начало" style="shape=mxgraph.flowchart.terminator;strokeWidth=2;gradientColor=none;gradientDirection=north;fontStyle=0;html=1;" parent="1" vertex="1">
          <mxGeometry x="260" y="30" width="120" height="30" as="geometry" />
        </mxCell>
        <mxCell id="jOcGUlfGyRazxr_j0wTr-68" style="edgeStyle=orthogonalEdgeStyle;rounded=0;orthogonalLoop=1;jettySize=auto;html=1;" edge="1" parent="1">
          <mxGeometry relative="1" as="geometry">
            <mxPoint x="570" y="155" as="targetPoint" />
            <mxPoint x="434" y="155.04761904761904" as="sourcePoint" />
          </mxGeometry>
        </mxCell>
        <mxCell id="7" style="fontStyle=1;strokeColor=#003366;strokeWidth=1;html=1;" parent="1" source="2" edge="1">
          <mxGeometry relative="1" as="geometry">
            <mxPoint x="320.63636363636374" y="115" as="targetPoint" />
          </mxGeometry>
        </mxCell>
        <mxCell id="18" value="CreateConvertArray" style="shape=mxgraph.flowchart.predefined_process;strokeWidth=2;gradientColor=none;gradientDirection=north;fontStyle=0;html=1;" parent="1" vertex="1">
          <mxGeometry x="565" y="260" width="190" height="50" as="geometry" />
        </mxCell>
        <mxCell id="40" value="Конец" style="shape=mxgraph.flowchart.terminator;strokeWidth=2;gradientColor=none;gradientDirection=north;fontStyle=0;html=1;" parent="1" vertex="1">
          <mxGeometry x="259.75" y="480" width="120" height="40" as="geometry" />
        </mxCell>
        <mxCell id="jOcGUlfGyRazxr_j0wTr-55" value="print array" style="shape=mxgraph.flowchart.document;strokeWidth=2;gradientColor=none;gradientDirection=north;fontStyle=0;html=1;" vertex="1" parent="1">
          <mxGeometry x="575" y="130" width="190.5" height="50" as="geometry" />
        </mxCell>
        <mxCell id="jOcGUlfGyRazxr_j0wTr-74" style="edgeStyle=orthogonalEdgeStyle;rounded=0;orthogonalLoop=1;jettySize=auto;html=1;entryX=0.5;entryY=0;entryDx=0;entryDy=0;" edge="1" parent="1" source="jOcGUlfGyRazxr_j0wTr-60" target="jOcGUlfGyRazxr_j0wTr-69">
          <mxGeometry relative="1" as="geometry" />
        </mxCell>
        <mxCell id="jOcGUlfGyRazxr_j0wTr-60" value="&lt;p&gt;&lt;span style=&quot;white-space: nowrap;&quot;&gt;array=&lt;br&gt;&lt;/span&gt;&lt;/p&gt;&lt;div style=&quot;white-space: nowrap;&quot;&gt;[“Hello”, “2”, “world”, “:-)”]&lt;/div&gt;" style="whiteSpace=wrap;html=1;" vertex="1" parent="1">
          <mxGeometry x="220.25" y="120" width="199.5" height="60" as="geometry" />
        </mxCell>
        <mxCell id="jOcGUlfGyRazxr_j0wTr-75" style="edgeStyle=orthogonalEdgeStyle;rounded=0;orthogonalLoop=1;jettySize=auto;html=1;" edge="1" parent="1" source="jOcGUlfGyRazxr_j0wTr-69">
          <mxGeometry relative="1" as="geometry">
            <mxPoint x="550" y="275" as="targetPoint" />
          </mxGeometry>
        </mxCell>
        <mxCell id="jOcGUlfGyRazxr_j0wTr-85" style="edgeStyle=orthogonalEdgeStyle;rounded=0;orthogonalLoop=1;jettySize=auto;html=1;" edge="1" parent="1" source="jOcGUlfGyRazxr_j0wTr-69" target="jOcGUlfGyRazxr_j0wTr-83">
          <mxGeometry relative="1" as="geometry" />
        </mxCell>
        <mxCell id="jOcGUlfGyRazxr_j0wTr-69" value="&lt;p&gt;&lt;span style=&quot;white-space: nowrap;&quot;&gt;newArray=CreateConvertArray&lt;/span&gt;&lt;/p&gt;" style="whiteSpace=wrap;html=1;" vertex="1" parent="1">
          <mxGeometry x="220" y="240" width="199.5" height="70" as="geometry" />
        </mxCell>
        <mxCell id="jOcGUlfGyRazxr_j0wTr-76" value="CountNumber" style="shape=mxgraph.flowchart.predefined_process;strokeWidth=2;gradientColor=none;gradientDirection=north;fontStyle=0;html=1;" vertex="1" parent="1">
          <mxGeometry x="565" y="380" width="190" height="50" as="geometry" />
        </mxCell>
        <mxCell id="jOcGUlfGyRazxr_j0wTr-77" style="edgeStyle=orthogonalEdgeStyle;rounded=0;orthogonalLoop=1;jettySize=auto;html=1;entryX=0.5;entryY=0;entryDx=0;entryDy=0;entryPerimeter=0;" edge="1" parent="1" source="18" target="jOcGUlfGyRazxr_j0wTr-76">
          <mxGeometry relative="1" as="geometry" />
        </mxCell>
        <mxCell id="jOcGUlfGyRazxr_j0wTr-83" value="print newArray" style="shape=mxgraph.flowchart.document;strokeWidth=2;gradientColor=none;gradientDirection=north;fontStyle=0;html=1;" vertex="1" parent="1">
          <mxGeometry x="224.5" y="380" width="190.5" height="50" as="geometry" />
        </mxCell>
        <mxCell id="jOcGUlfGyRazxr_j0wTr-87" style="edgeStyle=orthogonalEdgeStyle;rounded=0;orthogonalLoop=1;jettySize=auto;html=1;entryX=0.5;entryY=0;entryDx=0;entryDy=0;entryPerimeter=0;" edge="1" parent="1" source="jOcGUlfGyRazxr_j0wTr-83" target="40">
          <mxGeometry relative="1" as="geometry" />
        </mxCell>
      </root>
    </mxGraphModel>
  </diagram>
</mxfile>
